<?xml version="1.0" encoding="UTF-8" standalone="no"?>
<!DOCTYPE svg PUBLIC "-//W3C//DTD SVG 1.1//EN" "http://www.w3.org/Graphics/SVG/1.1/DTD/svg11.dtd">
<svg width="100%" height="100%" viewBox="0 0 3508 2481" version="1.1" xmlns="http://www.w3.org/2000/svg" xmlns:xlink="http://www.w3.org/1999/xlink" xml:space="preserve" xmlns:serif="http://www.serif.com/" style="fill-rule:evenodd;clip-rule:evenodd;stroke-linejoin:round;stroke-miterlimit:2;">
    <rect x="0" y="0" width="3507.87" height="2480.32" style="fill:rgb(31,31,31);"/>
    <g transform="matrix(0.871686,0,0,0.876732,225.055,152.872)">
        <g transform="matrix(3.92922e-17,1.00999,-1.08873,4.57474e-17,3418.75,-1112.92)">
            <path d="M2732.2,1305.99C2732.2,1089.6 2544.07,914.174 2312.01,914.174C2079.96,914.174 1891.84,1089.6 1891.84,1305.99L2732.2,1305.99Z" style="fill:rgb(254,255,254);"/>
        </g>
        <g transform="matrix(0.966816,0,0,0.997486,1.82409,176.517)">
            <g transform="matrix(1.09478,0,0,1,928.601,-518.844)">
                <path d="M559.795,795.863C579.562,921.841 677.982,1017.58 796.419,1017.58L796.419,1017.85C600.923,1017.85 442.205,1176.49 442.205,1371.89C442.205,1567.3 600.923,1725.94 796.419,1725.94L796.419,1992.6C453.225,1992.6 174.594,1714.01 174.594,1370.87C174.594,1111.49 333.808,888.987 559.795,795.863Z" style="fill:rgb(254,255,254);"/>
            </g>
            <g transform="matrix(1.32243,0,0,-1.58646,-490.783,1735.29)">
                <path d="M1732.63,948.63L1931.53,948.63C1931.53,855.116 1842.53,779.304 1732.63,779.266L1732.63,948.63Z" style="fill:rgb(254,255,254);"/>
            </g>
            <g transform="matrix(1.3255,0,0,-1.58646,-495.744,1735.29)">
                <path d="M1730.86,948.63L1732.63,948.63L1732.63,779.266C1634.59,779.266 1553.11,839.678 1536.74,919.17C1596.61,938.01 1662.15,948.465 1730.86,948.63Z" style="fill:rgb(254,255,254);"/>
            </g>
        </g>
        <g transform="matrix(1.09478,0,0,1,942.928,-334.873)">
            <path d="M796.419,749.175L794.276,749.175L796.419,749.148L796.419,749.175Z" style="fill:rgb(254,255,254);"/>
        </g>
        <g transform="matrix(1.39074,3.19558e-16,3.85068e-16,-1.57767,-783.264,3303.47)">
            <path d="M1732.63,948.63L1931.53,948.63C1931.53,855.116 1842.53,779.304 1732.63,779.266L1732.63,948.63Z" style="fill:url(#_Linear1);"/>
        </g>
        <g transform="matrix(-1.39074,-3.19558e-16,-3.88424e-16,1.59142,4312.63,-442.329)">
            <path d="M1732.63,948.63L1931.53,948.63C1931.53,912.064 1917.92,878.204 1894.78,850.523C1858.73,807.413 1799.56,779.29 1732.63,779.266L1732.63,948.63Z" style="fill:rgb(254,255,254);"/>
        </g>
        <g transform="matrix(0.358798,0,0,3.16219,1281.29,72.3881)">
            <rect x="1731.45" y="229.406" width="271.354" height="268.407" style="fill:rgb(254,255,254);"/>
        </g>
        <g transform="matrix(1.10479,0,0,1.55422,-286.505,-999.617)">
            <rect x="1731.45" y="1328.42" width="250.376" height="477.91" style="fill:rgb(254,255,254);"/>
        </g>
        <g>
            <g transform="matrix(2.23071,0,0,1.1747,-1182.83,-296.62)">
                <path d="M1425.43,1429.08L1425.43,1145.97C1432.29,1145.97 1439.01,1147.12 1445.58,1149.34C1476.76,1165.24 1499.82,1220.86 1499.82,1286.94C1499.82,1365.42 1467.31,1429.13 1427.27,1429.13L1425.43,1429.08Z" style="fill:rgb(31,31,31);"/>
            </g>
            <g transform="matrix(0.346002,-5.14384e-06,1.52289e-05,1.02438,1303.9,872.231)">
                <rect x="1731.45" y="229.406" width="271.354" height="268.407" style="fill:rgb(31,31,31);"/>
            </g>
            <g transform="matrix(0.135259,0,0,1.23924,1731.39,765.259)">
                <rect x="1731.45" y="229.406" width="271.354" height="268.407" style="fill:rgb(31,31,31);"/>
            </g>
            <g transform="matrix(-0.320113,0,0,0.351092,2520.83,775.954)">
                <path d="M1732.63,948.63L1931.53,948.63C1931.53,855.116 1842.53,779.304 1732.63,779.266L1732.63,948.63Z" style="fill:rgb(31,31,31);"/>
            </g>
        </g>
    </g>
    <defs>
        <linearGradient id="_Linear1" x1="0" y1="0" x2="1" y2="0" gradientUnits="userSpaceOnUse" gradientTransform="matrix(198.896,0,0,169.363,1732.63,863.948)"><stop offset="0" style="stop-color:white;stop-opacity:1"/><stop offset="1" style="stop-color:white;stop-opacity:1"/></linearGradient>
    </defs>
</svg>
